<?xml version="1.0" encoding="UTF-8"?>
<svg width="181px" height="108px" viewBox="0 0 181 108" version="1.1" xmlns="http://www.w3.org/2000/svg" xmlns:xlink="http://www.w3.org/1999/xlink">
    <!-- Generator: Sketch 49.3 (51167) - http://www.bohemiancoding.com/sketch -->
    <title>hamburger</title>
    <desc>Created with Sketch.</desc>
    <defs></defs>
    <g id="sming-symbols" stroke="none" stroke-width="1" fill="none" fill-rule="evenodd">
        <path d="M3,53.6681146 C3,47.2239929 8.75604378,42 15.8564836,42 L163.706045,42 C170.806485,42 176.562529,47.2239929 176.562529,53.6681146 C176.562529,60.1122364 170.806485,65.3362293 163.706045,65.3362293 L15.8564836,65.3362293 C8.75604378,65.3362293 3,60.1122364 3,53.6681146 Z" id="Rectangle" fill="#4D4D4D"></path>
        <path d="M4,92.6681146 C4,86.2239929 9.75604378,81 16.8564836,81 L164.706045,81 C171.806485,81 177.562529,86.2239929 177.562529,92.6681146 C177.562529,99.1122364 171.806485,104.336229 164.706045,104.336229 L16.8564836,104.336229 C9.75604378,104.336229 4,99.1122364 4,92.6681146 Z" id="Rectangle" fill="#4D4D4D"></path>
        <path d="M3,14.6681146 C3,8.22399287 8.75604378,3 15.8564836,3 L163.706045,3 C170.806485,3 176.562529,8.22399287 176.562529,14.6681146 C176.562529,21.1122364 170.806485,26.3362293 163.706045,26.3362293 L15.8564836,26.3362293 C8.75604378,26.3362293 3,21.1122364 3,14.6681146 Z" id="Rectangle" fill="#4D4D4D"></path>
    </g>
</svg>