<?xml version="1.0" encoding="UTF-8"?>
<svg width="199px" height="133px" viewBox="0 0 199 133" version="1.1" xmlns="http://www.w3.org/2000/svg" xmlns:xlink="http://www.w3.org/1999/xlink">
    <!-- Generator: Sketch 49.3 (51167) - http://www.bohemiancoding.com/sketch -->
    <title>hamburger</title>
    <desc>Created with Sketch.</desc>
    <defs></defs>
    <g id="sming-symbols" stroke="none" stroke-width="1" fill="none" fill-rule="evenodd">
        <path d="M2,16.3013699 C2,8.40294139 8.4076678,2 16.3119266,2 L149.591743,2 C157.496002,2 163.90367,8.40294139 163.90367,16.3013699 C163.90367,24.1997983 157.496002,30.6027397 149.591743,30.6027397 L16.3119266,30.6027397 C8.4076678,30.6027397 2,24.1997983 2,16.3013699 Z" id="Rectangle" fill="#4D4D4D"></path>
        <path d="M2,66.3013699 C2,58.4029414 8.4076678,52 16.3119266,52 L180.899083,52 C188.803341,52 195.211009,58.4029414 195.211009,66.3013699 C195.211009,74.1997983 188.803341,80.6027397 180.899083,80.6027397 L16.3119266,80.6027397 C8.4076678,80.6027397 2,74.1997983 2,66.3013699 Z" id="Rectangle" fill="#4D4D4D"></path>
        <path d="M2,116.30137 C2,108.402941 8.4076678,102 16.3119266,102 L165.692661,102 C173.596919,102 180.004587,108.402941 180.004587,116.30137 C180.004587,124.199798 173.596919,130.60274 165.692661,130.60274 L16.3119266,130.60274 C8.4076678,130.60274 2,124.199798 2,116.30137 Z" id="Rectangle" fill="#4D4D4D"></path>
    </g>
</svg>